<svg width="2160" height="1520" viewBox="0 0 2160 1520" fill="none" xmlns="http://www.w3.org/2000/svg">
<g filter="url(#filter0_i_10463_6)">
<path d="M1039.43 279.361L759.953 0L0 759.637L759.953 1519.27L1039.43 1240.24L558.623 759.637L1039.43 279.361Z" fill="#00183C"/>
</g>
<g filter="url(#filter1_i_10463_6)">
<path d="M1464.12 1012.19C1324.08 1012.19 1210.53 898.656 1210.53 758.644C1210.53 618.633 1324.08 505.101 1464.12 505.101C1582.31 505.101 1681.95 586.195 1709.76 695.755H2159.67L1463.46 0L703.68 759.637L1463.46 1519.27L2160 822.858H1709.43C1680.96 931.756 1581.97 1012.19 1464.12 1012.19Z" fill="#00183C"/>
</g>
<defs>
<filter id="filter0_i_10463_6" x="0" y="0" width="1063.43" height="1555.27" filterUnits="userSpaceOnUse" color-interpolation-filters="sRGB">
<feFlood flood-opacity="0" result="BackgroundImageFix"/>
<feBlend mode="normal" in="SourceGraphic" in2="BackgroundImageFix" result="shape"/>
<feColorMatrix in="SourceAlpha" type="matrix" values="0 0 0 0 0 0 0 0 0 0 0 0 0 0 0 0 0 0 127 0" result="hardAlpha"/>
<feOffset dx="24" dy="36"/>
<feGaussianBlur stdDeviation="60"/>
<feComposite in2="hardAlpha" operator="arithmetic" k2="-1" k3="1"/>
<feColorMatrix type="matrix" values="0 0 0 0 0.0235294 0 0 0 0 0.0941176 0 0 0 0 0.164706 0 0 0 1 0"/>
<feBlend mode="normal" in2="shape" result="effect1_innerShadow_10463_6"/>
</filter>
<filter id="filter1_i_10463_6" x="703.68" y="0" width="1480.32" height="1555.27" filterUnits="userSpaceOnUse" color-interpolation-filters="sRGB">
<feFlood flood-opacity="0" result="BackgroundImageFix"/>
<feBlend mode="normal" in="SourceGraphic" in2="BackgroundImageFix" result="shape"/>
<feColorMatrix in="SourceAlpha" type="matrix" values="0 0 0 0 0 0 0 0 0 0 0 0 0 0 0 0 0 0 127 0" result="hardAlpha"/>
<feOffset dx="24" dy="36"/>
<feGaussianBlur stdDeviation="60"/>
<feComposite in2="hardAlpha" operator="arithmetic" k2="-1" k3="1"/>
<feColorMatrix type="matrix" values="0 0 0 0 0.0235294 0 0 0 0 0.0941176 0 0 0 0 0.164706 0 0 0 1 0"/>
<feBlend mode="normal" in2="shape" result="effect1_innerShadow_10463_6"/>
</filter>
</defs>
</svg>
